<svg width="217" height="92" viewBox="0 0 217 92" fill="none" xmlns="http://www.w3.org/2000/svg">
<mask id="mask0_164_480" style="mask-type:alpha" maskUnits="userSpaceOnUse" x="0" y="0" width="217" height="92">
<rect width="217" height="92" fill="#D9D9D9"/>
</mask>
<g mask="url(#mask0_164_480)">
</g>
<g clip-path="url(#clip0_164_480)">
<path d="M32.0729 27.0068C32.0729 27.0068 3.9137 78.4691 3.98059 78.3078C4.17456 77.9584 4.89694 77.1384 5.39859 76.4394C5.53236 76.2512 5.55911 76.2311 5.53236 76.2916L5.31163 76.8427C5.2715 76.9435 5.31163 76.9569 5.39859 77.0376C6.02283 77.3473 6.74264 77.4004 7.40518 77.1854C7.69032 77.0871 7.95379 76.9342 8.18105 76.7351C8.90187 75.6833 9.54997 74.5829 10.1208 73.4419C10.1208 73.4419 10.0739 73.9527 10.0806 73.9594C10.0445 74.3582 10.0876 74.7604 10.2077 75.1423C10.6982 76.2131 11.4915 77.1154 12.4885 77.7366C13.8698 78.5314 15.4256 78.9701 17.0167 79.0135C18.1204 79.0135 30.0261 68.7372 30.0261 68.7372C30.0261 68.7372 38.0324 62.1507 40.039 60.578C44.0522 57.4729 47.0554 55.3289 47.0554 55.3289C47.0554 55.3289 49.7309 58.0173 50.2191 58.4273C50.5402 58.7163 51.0017 59.1666 51.0017 59.1666C50.575 58.0903 50.0859 57.04 49.5369 56.0212L48.0052 53.5075L32.0729 27.0068Z" fill="#D9383E"/>
<path d="M46.7868 62.7889C48.0363 62.6897 49.2749 63.0853 50.2381 63.8912C51.1478 64.8052 51.1144 65.0337 51.7163 65.6453C52.1975 66.1217 52.5955 66.6761 52.8935 67.2853C53.2189 67.9695 53.3945 68.716 53.4083 69.4743C53.4222 70.2325 53.274 70.9849 52.9738 71.6808C52.3049 73.0249 50.6997 74.0264 49.6295 74.5506C48.2993 75.2002 46.825 75.4942 45.3487 75.4042C44.6473 75.3625 43.9664 75.1498 43.3651 74.7844C42.7638 74.4191 42.26 73.9121 41.8974 73.3072C41.2139 72.1134 40.8974 70.743 40.9878 69.3687C41.0346 67.003 41.5429 66.0688 42.3255 64.9195C43.3823 63.4946 45.0544 62.9166 46.7868 62.7889Z" fill="#D9383E"/>
<path d="M73.4798 38.3314C73.4103 38.3261 73.3405 38.3366 73.2756 38.3622C73.2107 38.3878 73.1525 38.4278 73.1052 38.4793C73.0228 38.5869 72.9802 38.72 72.9848 38.8557V67.3727C72.9796 67.5084 73.0223 67.6417 73.1052 67.749C73.1518 67.8017 73.2098 67.843 73.2747 67.8698C73.3396 67.8966 73.4097 67.9082 73.4798 67.9036H74.8777C75.0778 67.9204 75.2792 67.8916 75.4668 67.8194C75.6543 67.7473 75.8233 67.6337 75.9612 67.4869C76.2102 67.1885 76.339 66.8073 76.3224 66.4183V57.4996H77.7672C79.0445 57.5785 80.3042 57.1678 81.2921 56.3503C81.7159 55.946 82.0477 55.4544 82.2648 54.9091C82.4818 54.3639 82.579 53.778 82.5495 53.1915V42.6396C82.5599 42.0264 82.4437 41.4177 82.2084 40.8518C81.9926 40.3346 81.6607 39.8745 81.2386 39.5076C80.7967 39.1191 80.2798 38.8262 79.7202 38.6473C79.0902 38.4391 78.4303 38.3369 77.7672 38.3449L73.4798 38.3314ZM77.7672 41.1475C77.9711 41.1285 78.1767 41.1568 78.368 41.2302C78.5594 41.3036 78.7314 41.4202 78.8708 41.5709C79.106 41.8784 79.2267 42.2588 79.2119 42.6463V53.1982C79.2252 53.5877 79.0995 53.9691 78.8574 54.2735C78.7194 54.4224 78.5496 54.5379 78.3608 54.6112C78.1719 54.6846 77.9689 54.7139 77.7672 54.697H76.3224V41.1475H77.7672Z" fill="white"/>
<path d="M96.1502 38.3317C96.0807 38.3258 96.0108 38.3361 95.9458 38.3617C95.8809 38.3874 95.8226 38.4277 95.7757 38.4795C95.6914 38.5865 95.6465 38.7195 95.6486 38.8559V67.3729C95.6454 67.5095 95.6904 67.6429 95.7757 67.7493C95.822 67.8024 95.8799 67.844 95.9449 67.8708C96.0099 67.8976 96.0802 67.9089 96.1502 67.9039H97.5615C97.7617 67.9206 97.963 67.8918 98.1506 67.8197C98.3382 67.7476 98.5072 67.6339 98.6451 67.4872C98.8931 67.1908 99.0219 66.8121 99.0063 66.4253V56.075H100.451C100.656 56.0541 100.862 56.0808 101.055 56.153C101.247 56.2253 101.421 56.3412 101.561 56.4917C101.798 56.8031 101.917 57.1891 101.896 57.5805V66.432C101.88 66.8188 102.009 67.1976 102.257 67.4939C102.395 67.6406 102.564 67.7543 102.751 67.8264C102.939 67.8986 103.14 67.9273 103.341 67.9106H104.738C104.808 67.9151 104.879 67.9036 104.944 67.8768C105.008 67.85 105.066 67.8087 105.113 67.756C105.196 67.6487 105.239 67.5154 105.233 67.3796V57.5738C105.273 56.9854 105.138 56.3983 104.847 55.8865C104.555 55.3747 104.12 54.9609 103.595 54.6972C104.086 54.4309 104.5 54.0421 104.799 53.5681C105.11 53.0185 105.261 52.3919 105.233 51.7601V42.6398C105.243 42.0295 105.13 41.4235 104.899 40.8588C104.686 40.3436 104.359 39.8839 103.943 39.5146C103.503 39.1313 102.995 38.8369 102.444 38.6476C101.82 38.4332 101.164 38.3286 100.505 38.3384L96.1502 38.3317ZM100.431 41.1478C100.632 41.1319 100.833 41.1617 101.021 41.235C101.209 41.3083 101.377 41.4232 101.515 41.5712C101.762 41.8732 101.89 42.2558 101.876 42.6465V51.7669C101.892 52.1557 101.769 52.5374 101.528 52.8422C101.39 52.9932 101.219 53.1105 101.029 53.1851C100.839 53.2596 100.634 53.2895 100.431 53.2724H98.9862V41.1746L100.431 41.1478Z" fill="white"/>
<path d="M118.998 38.3317C118.929 38.3258 118.859 38.3361 118.794 38.3617C118.729 38.3874 118.671 38.4277 118.624 38.4795C118.537 38.5851 118.492 38.719 118.497 38.8559V67.3729C118.49 67.51 118.536 67.6444 118.624 67.7493C118.67 67.8024 118.728 67.844 118.793 67.8708C118.858 67.8976 118.928 67.9089 118.998 67.9039H125.687C125.823 67.906 125.955 67.8609 126.062 67.7762C126.113 67.7277 126.153 67.668 126.179 67.6016C126.204 67.5353 126.215 67.464 126.209 67.3931V66.5395C126.228 66.1565 126.104 65.7802 125.861 65.4843C125.746 65.3515 125.603 65.2462 125.442 65.1765C125.281 65.1067 125.106 65.0741 124.931 65.0811H121.854V54.6905H124.423C124.597 54.6965 124.77 54.6634 124.93 54.5936C125.089 54.5239 125.232 54.4192 125.346 54.2872C125.59 53.9892 125.714 53.6105 125.694 53.2253V52.3718C125.7 52.3019 125.689 52.2316 125.664 52.1663C125.638 52.1011 125.598 52.0426 125.547 51.9954C125.441 51.9081 125.308 51.8626 125.172 51.8677H121.828V41.1545H124.904C125.08 41.1615 125.254 41.1289 125.415 41.0591C125.576 40.9893 125.719 40.8841 125.834 40.7512C126.077 40.4526 126.201 40.0743 126.182 39.6893V38.8358C126.188 38.7659 126.178 38.6956 126.152 38.6303C126.127 38.5651 126.086 38.5066 126.035 38.4594C125.93 38.3721 125.796 38.3266 125.66 38.3317H118.998Z" fill="white"/>
<path d="M147.818 48.6752C147.887 48.6805 147.957 48.67 148.022 48.6444C148.087 48.6188 148.145 48.5788 148.192 48.5273C148.275 48.4197 148.317 48.2866 148.313 48.1509V42.2365C148.345 41.6497 148.249 41.0629 148.032 40.5173C147.815 39.9717 147.481 39.4803 147.055 39.0777C146.07 38.2541 144.809 37.8405 143.53 37.9217C142.863 37.9122 142.198 38.0144 141.564 38.2241C141.01 38.4072 140.499 38.6997 140.059 39.0844C139.639 39.4532 139.307 39.9127 139.089 40.4286C138.854 40.9944 138.738 41.6031 138.748 42.2163C138.732 43.5653 138.819 44.9134 139.009 46.2489C139.156 47.2284 139.396 48.1916 139.725 49.1255C139.985 49.8685 140.321 50.5825 140.728 51.256C141.102 51.8609 141.484 52.4389 141.865 52.9967C142.246 53.5546 142.621 54.146 142.995 54.7509C143.403 55.4344 143.741 56.1572 144.005 56.9083C144.337 57.864 144.574 58.85 144.714 59.8521C144.903 61.2147 144.991 62.5896 144.975 63.9653C144.995 64.3587 144.871 64.7458 144.627 65.0541C144.325 65.3189 143.938 65.4647 143.537 65.4647C143.136 65.4647 142.749 65.3189 142.447 65.0541C142.196 64.7489 142.067 64.3608 142.086 63.9653V58.7633C142.098 58.3714 141.962 57.9894 141.704 57.6947C141.567 57.5479 141.397 57.4343 141.21 57.3622C141.022 57.29 140.821 57.2613 140.621 57.278H139.23C139.16 57.2729 139.089 57.2843 139.024 57.3111C138.959 57.3379 138.901 57.3795 138.855 57.4326C138.77 57.539 138.725 57.6723 138.728 57.8089V63.972C138.698 64.5586 138.795 65.1447 139.012 65.69C139.229 66.2353 139.561 66.7269 139.985 67.1309C140.973 67.9484 142.233 68.3591 143.51 68.2802C144.175 68.287 144.837 68.1872 145.47 67.9845C146.029 67.8006 146.545 67.5058 146.988 67.1175C147.408 66.748 147.739 66.2886 147.958 65.7733C148.191 65.2044 148.305 64.5936 148.293 63.9788C148.307 62.5339 148.22 61.0898 148.032 59.6572C147.888 58.5766 147.651 57.5106 147.323 56.4715C147.059 55.649 146.721 54.8526 146.313 54.0923C145.938 53.4202 145.564 52.7481 145.182 52.1768C144.801 51.6055 144.42 50.9737 144.045 50.3689C143.652 49.728 143.316 49.0532 143.042 48.3526C142.715 47.5127 142.475 46.6411 142.326 45.7516C142.139 44.5918 142.052 43.418 142.066 42.2432C142.048 41.8481 142.171 41.4596 142.413 41.1477C142.715 40.883 143.103 40.7371 143.504 40.7371C143.904 40.7371 144.292 40.883 144.594 41.1477C144.845 41.4529 144.973 41.8411 144.955 42.2365V47.1966C144.939 47.5834 145.068 47.9621 145.316 48.2585C145.455 48.404 145.624 48.5164 145.812 48.5874C145.999 48.6583 146.2 48.686 146.4 48.6685L147.818 48.6752Z" fill="white"/>
<path d="M170.466 48.6752C170.535 48.6801 170.605 48.6693 170.67 48.6437C170.734 48.6182 170.793 48.5784 170.84 48.5273C170.923 48.4197 170.965 48.2866 170.961 48.1509V42.2365C170.991 41.65 170.894 41.0639 170.677 40.5186C170.459 39.9733 170.127 39.4817 169.703 39.0777C168.718 38.2541 167.457 37.8405 166.178 37.9217C165.511 37.9122 164.846 38.0144 164.212 38.2241C163.658 38.4072 163.146 38.6997 162.707 39.0844C162.285 39.4528 161.951 39.9123 161.73 40.4286C161.5 40.9958 161.387 41.6039 161.396 42.2163C161.38 43.5653 161.467 44.9134 161.657 46.2489C161.802 47.2282 162.039 48.1913 162.366 49.1255C162.628 49.8688 162.967 50.5828 163.376 51.256C163.75 51.8609 164.132 52.4389 164.513 52.9967C164.894 53.5546 165.269 54.146 165.643 54.7509C166.051 55.4344 166.389 56.1572 166.653 56.9083C166.985 57.864 167.222 58.85 167.362 59.8521C167.551 61.2147 167.638 62.5896 167.623 63.9653C167.643 64.3587 167.519 64.7457 167.275 65.0541C166.973 65.3189 166.586 65.4647 166.185 65.4647C165.784 65.4647 165.397 65.3189 165.095 65.0541C164.844 64.7489 164.715 64.3607 164.734 63.9653V58.7633C164.75 58.3764 164.621 57.9974 164.372 57.7014C164.234 57.5547 164.065 57.441 163.878 57.3689C163.69 57.2967 163.489 57.268 163.289 57.2847H161.898C161.827 57.2797 161.757 57.291 161.692 57.3178C161.627 57.3446 161.569 57.3862 161.523 57.4393C161.435 57.5442 161.39 57.6786 161.396 57.8157V63.9788C161.366 64.5653 161.463 65.1514 161.68 65.6967C161.897 66.242 162.229 66.7336 162.653 67.1376C163.641 67.9551 164.901 68.3658 166.178 68.2869C166.841 68.2938 167.5 68.194 168.131 67.9912C168.692 67.8073 169.211 67.5125 169.656 67.1242C170.074 66.7529 170.405 66.294 170.626 65.78C170.855 65.2101 170.969 64.6001 170.961 63.9855C170.975 62.5406 170.888 61.0965 170.7 59.6639C170.556 58.5833 170.319 57.5174 169.991 56.4782C169.727 55.6557 169.389 54.8593 168.981 54.099C168.606 53.4269 168.232 52.7548 167.85 52.1835C167.469 51.6122 167.088 50.9805 166.713 50.3756C166.318 49.7349 165.98 49.0602 165.703 48.3593C165.382 47.5181 165.144 46.6468 164.994 45.7583C164.807 44.5985 164.72 43.4247 164.734 42.2499C164.713 41.8544 164.837 41.4649 165.081 41.1544C165.383 40.8897 165.771 40.7438 166.172 40.7438C166.572 40.7438 166.96 40.8897 167.262 41.1544C167.513 41.4597 167.641 41.8478 167.623 42.2432V47.2033C167.607 47.5901 167.736 47.9689 167.984 48.2652C168.123 48.4107 168.292 48.5231 168.48 48.5941C168.667 48.665 168.868 48.6928 169.068 48.6752H170.466Z" fill="white"/>
<path d="M184.06 64.7114C183.717 65.0839 183.527 65.5722 183.527 66.0791C183.527 66.586 183.717 67.0744 184.06 67.4468C184.484 67.8026 185.026 67.9828 185.578 67.9509C186.138 67.9857 186.69 67.8055 187.123 67.4468C187.465 67.0744 187.655 66.586 187.655 66.0791C187.655 65.5722 187.465 65.0839 187.123 64.7114C186.684 64.3652 186.135 64.193 185.578 64.2275C185.03 64.1959 184.489 64.3681 184.06 64.7114V64.7114Z" fill="white"/>
<path d="M202.926 38.3317C202.861 38.3269 202.795 38.3378 202.735 38.3635C202.674 38.3892 202.621 38.429 202.579 38.4795C202.495 38.5786 202.441 38.7 202.425 38.829L199.683 67.2721C199.675 67.3497 199.683 67.428 199.707 67.5021C199.732 67.5762 199.771 67.6444 199.823 67.7022C199.886 67.7733 199.965 67.8286 200.053 67.8636C200.142 67.8986 200.237 67.9124 200.331 67.9038H201.555C201.933 67.9182 202.302 67.7858 202.585 67.5342C202.847 67.3092 203.012 66.9914 203.047 66.647L203.301 62.6145H205.368L205.615 66.647C205.65 66.9914 205.815 67.3092 206.077 67.5342C206.363 67.7856 206.734 67.9179 207.114 67.9038H208.338C208.432 67.9119 208.527 67.8978 208.615 67.8628C208.703 67.8279 208.782 67.7729 208.846 67.7022C208.897 67.644 208.936 67.5756 208.959 67.5015C208.982 67.4274 208.989 67.3492 208.98 67.2721L206.237 38.829C206.223 38.7007 206.172 38.5794 206.09 38.4795C206.048 38.4294 205.994 38.3899 205.934 38.3642C205.873 38.3386 205.808 38.3274 205.742 38.3317H202.926ZM204.318 45.55L205.194 59.7984H203.475L204.318 45.55Z" fill="white"/>
</g>
<defs>
<clipPath id="clip0_164_480">
<rect width="207" height="52" fill="white" transform="translate(4 27)"/>
</clipPath>
</defs>
</svg>
