<svg width="217" height="92" viewBox="0 0 217 92" fill="none" xmlns="http://www.w3.org/2000/svg">
<mask id="mask0_164_479" style="mask-type:alpha" maskUnits="userSpaceOnUse" x="0" y="0" width="217" height="92">
<rect width="217" height="92" fill="#D9D9D9"/>
</mask>
<g mask="url(#mask0_164_479)">
<path d="M44.9149 59.9236C42.3186 59.9236 41 60.5875 41 62.9065V83.9926C41 86.3116 42.3186 87.0285 44.9149 86.9755C47.2752 86.9287 48.833 86.6638 48.833 84.3573V75.0283L51.6654 84.9526C52.2948 87.3184 54.6173 87.0004 55.1743 86.9755C57.3049 86.882 60.2883 86.1589 60.2883 84.9027C60.2883 84.3573 59.9421 84.1235 59.5424 82.9079L56.0429 73.2984L59.3662 62.788C59.5204 62.2613 59.8351 61.8343 59.8351 61.3075C59.8351 60.1636 56.7888 59.6649 54.7243 59.9984C52.2067 60.4067 51.8227 60.8805 51.2625 62.9096L48.8173 71.4968V62.9065C48.833 60.5875 50.0478 59.9236 44.9149 59.9236Z" fill="#FFF5D2"/>
<path d="M116.24 86.5983H120.646C126.383 86.5983 129.719 83.6684 129.719 77.8086V69.0811C129.719 63.2213 126.383 60.2883 120.646 60.2883H116.24C116.007 60.2883 113.643 60.4192 112.611 60.8026C112.054 61.0083 112.035 61.3137 112.117 61.7158C112.274 62.742 112.344 63.7794 112.325 64.8172V82.7957C112.325 84.9464 113.643 86.5983 116.24 86.5983ZM120.158 66.3102H120.699C121.514 66.3102 121.901 66.6873 121.901 67.4759V79.4232C121.901 80.2117 121.514 80.5889 120.699 80.5889H120.158V66.3102Z" fill="#FFF5D2"/>
<path d="M149.573 79.0865V67.8126C149.573 63.1527 146.628 59.774 140.891 59.774C135.154 59.774 132.205 63.1527 132.205 67.8126V79.0865C132.205 83.7432 135.15 87.1251 140.891 87.1251C146.631 87.1251 149.573 83.7432 149.573 79.0865ZM140.038 66.7029C140.028 66.5859 140.042 66.4681 140.08 66.3569C140.119 66.2457 140.18 66.1436 140.26 66.0571C140.34 65.9705 140.438 65.9014 140.546 65.8542C140.655 65.8069 140.772 65.7825 140.891 65.7825C141.009 65.7825 141.127 65.8069 141.235 65.8542C141.344 65.9014 141.441 65.9705 141.521 66.0571C141.601 66.1436 141.663 66.2457 141.701 66.3569C141.739 66.4681 141.754 66.5859 141.743 66.7029V80.2273C141.754 80.3443 141.739 80.4622 141.701 80.5734C141.663 80.6845 141.601 80.7866 141.521 80.8732C141.441 80.9597 141.344 81.0288 141.235 81.0761C141.127 81.1233 141.009 81.1478 140.891 81.1478C140.772 81.1478 140.655 81.1233 140.546 81.0761C140.438 81.0288 140.34 80.9597 140.26 80.8732C140.18 80.7866 140.119 80.6845 140.08 80.5734C140.042 80.4622 140.028 80.3443 140.038 80.2273V66.7029Z" fill="#FFF5D2"/>
<path d="M105.801 71.1944C108.205 71.1944 109.716 71.0137 109.716 68.4578V66.8369C109.716 62.7849 107.12 59.774 101.266 59.774C95.5258 59.774 92.618 62.5543 92.618 68.0775V78.8964C92.618 83.7806 95.1765 87.1251 101.342 87.1251C103.002 87.1717 104.646 86.7939 106.116 86.0279C107.151 86.1776 108.539 86.3147 109.436 85.9812C109.993 85.7755 110.012 85.47 109.93 85.071C109.807 84.4477 109.732 82.0133 109.716 79.5291V75.8823C109.716 73.3545 108.514 72.3571 106.254 72.3196H104.74C102.415 72.3196 101.156 73.2017 101.156 74.5919C101.156 75.4522 102.374 75.6298 102.377 77.0356V79.9842C102.377 80.6606 102.106 81.1094 101.408 81.1094C100.709 81.1094 100.438 80.6606 100.438 80.0216V66.7995C100.438 66.0484 100.709 65.7834 101.291 65.7834C101.873 65.7834 102.065 66.198 102.065 66.8369V68.4578C102.078 71.2007 103.359 71.1944 105.801 71.1944Z" fill="#FFF5D2"/>
<path d="M69.8081 83.9926V65.8987C69.8081 63.1247 69.8899 62.0057 70.0253 61.3106C70.1071 60.9085 70.0882 60.6062 69.5312 60.4005C68.2031 59.908 66.6453 59.9205 66.0222 59.9236H65.8932C63.2937 59.9236 61.9751 60.5875 61.9751 62.9065V83.9926C61.9751 86.3116 63.2937 86.9755 65.8932 86.9755C68.4927 86.9755 69.8081 86.3116 69.8081 83.9926Z" fill="#FFF5D2"/>
<path d="M80.0235 83.9521V76.1597L82.6985 85.1022C83.202 86.7386 84.4042 86.9724 86.3427 86.9724C88.7093 86.9724 90.1412 86.1308 90.1412 83.737V64.8328C90.1601 62.8286 90.2388 61.9153 90.3552 61.3169C90.4371 60.9148 90.4182 60.6124 89.8611 60.4067C88.5457 59.9173 87.0099 59.9267 86.3711 59.9298H86.2641C83.7842 59.9298 82.5442 60.4316 82.5442 62.9127V69.6983L79.9857 61.9963C79.4413 60.4005 78.4342 59.9298 76.2092 59.9298C73.7262 59.9298 72.4076 60.6 72.4076 63.1122V83.9583C72.4076 86.2773 73.7262 86.9817 76.2092 86.9817C78.6923 86.9817 80.0235 86.2711 80.0235 83.9521Z" fill="#FFF5D2"/>
<path d="M152.491 60.4005C151.934 60.6062 151.918 60.9085 151.997 61.3106C152.131 62.1435 152.197 62.9857 152.195 63.8291V84.0331C152.195 86.215 153.51 86.9755 155.993 86.9755C158.552 86.9755 160.025 86.3521 160.025 84.0331V77.1758L160.569 78.9026C160.693 79.3056 160.945 79.6584 161.287 79.9091C161.629 80.1598 162.043 80.2951 162.468 80.2951C162.894 80.2951 163.308 80.1598 163.65 79.9091C163.992 79.6584 164.243 79.3056 164.368 78.9026L164.909 77.1758V84.0331C164.909 86.3646 166.385 86.9755 168.943 86.9755C171.423 86.9755 172.742 86.2025 172.742 84.0331V65.8988C172.742 63.1247 172.824 62.0057 172.962 61.3106C173.041 60.9085 173.022 60.6062 172.465 60.4005C171.033 59.8675 169.337 59.9236 168.827 59.9236H168.553C165.875 59.9236 164.984 60.6124 164.21 63.4644L162.476 69.9913L160.733 63.4644C159.959 60.6124 159.065 59.9236 156.39 59.9236H156.141C155.622 59.9236 153.926 59.8675 152.491 60.4005Z" fill="#FFF5D2"/>
<path d="M172.515 54.896H41.4846C41.217 54.896 41 55.1109 41 55.376V56.8596C41 57.1247 41.217 57.3396 41.4846 57.3396H172.515C172.783 57.3396 173 57.1247 173 56.8596V55.376C173 55.1109 172.783 54.896 172.515 54.896Z" fill="#FFF5D2"/>
<path d="M43.5176 89.5594C41.4626 89.5594 41 89.0701 41 89.0701V90.6691C41.0008 91.0223 41.1431 91.3609 41.3956 91.6104C41.6481 91.8599 41.9903 92 42.3469 92H171.653C172.01 92 172.352 91.8599 172.604 91.6104C172.857 91.3609 172.999 91.0223 173 90.6691V89.0701C173 89.0701 172.528 89.5594 170.482 89.5594H43.5176Z" fill="#FFF5D2"/>
<path d="M46.5703 48.7431C45.3115 48.7431 43.5019 48.0761 42.5767 47.4309C42.4099 47.3062 41.0031 48.6371 41.0031 49.7811C40.9949 50.1891 41.1004 50.5914 41.308 50.9439C41.5157 51.2964 41.8174 51.5854 42.1801 51.779C43.0204 52.2777 44.4303 52.5894 46.586 52.5894C51.0863 52.5894 53.1948 50.9873 53.1948 47.8486C53.1948 45.436 51.2405 44.2703 48.4019 43.6687C47.1808 43.4194 46.2147 43.3976 46.2147 42.9394C46.2147 42.4812 46.5734 42.3565 47.5805 42.3565C48.8677 42.421 50.1057 42.8673 51.1335 43.6376C51.2374 43.7217 52.8581 42.4937 52.8581 41.144C52.8581 40.396 52.4805 39.7507 51.6182 39.2739C50.7559 38.797 49.4152 38.504 47.4955 38.504C43.4043 38.504 41.2958 40.1684 41.2958 43.142C41.2958 45.969 43.6498 46.9072 45.9818 47.3623C47.1399 47.593 47.9802 47.6335 47.9802 48.154C47.9802 48.5748 47.6088 48.7431 46.5703 48.7431Z" fill="#FFF5D2"/>
<path d="M70.2833 52.3806H71.0166C72.4894 52.3806 73.3108 51.5702 73.3108 50.0304V43.2105H74.8434C76.4421 43.2105 77.2194 42.4407 77.2194 40.9851V40.9227C77.2194 39.5294 76.4421 38.8219 74.8434 38.8219H66.5383C64.9837 38.8219 64.1655 39.5294 64.1655 40.9227V40.9851C64.1655 42.4407 64.9837 43.2105 66.5383 43.2105H68.1591V50.0304C68.1591 51.5702 68.8735 52.3806 70.2833 52.3806Z" fill="#FFF5D2"/>
<path d="M91.9823 38.719H91.3528C89.9461 38.719 89.0838 39.4889 89.0838 41.0692V46.1841C89.0838 50.3857 91.271 52.4866 95.6234 52.4866C99.9758 52.4866 102.16 50.3857 102.16 46.1841V41.0692C102.16 39.4889 101.383 38.719 99.9097 38.719H99.2803C97.8704 38.719 97.0113 39.4889 97.0113 41.0692V46.2246C97.0113 47.5369 96.5895 48.0948 95.6423 48.0948C94.695 48.0948 94.2356 47.4901 94.2356 46.2246V41.0692C94.2418 39.4889 93.4645 38.719 91.9823 38.719Z" fill="#FFF5D2"/>
<path d="M121.565 52.2777C125.97 52.2777 128.803 49.594 128.803 45.4766C128.803 41.3591 126.049 38.8219 121.634 38.8219H117.898C116.362 38.8219 115.248 39.7788 115.248 41.6521V49.4912C115.251 49.8601 115.327 50.2249 115.472 50.5647C115.617 50.9046 115.828 51.2127 116.094 51.4715C116.359 51.7304 116.673 51.9348 117.019 52.0732C117.364 52.2115 117.733 52.281 118.106 52.2777H121.565ZM120.347 43.1264H121.461C122.827 43.1264 123.752 43.9368 123.752 45.4766C123.752 47.0163 122.742 47.9701 121.398 47.9701H120.337L120.347 43.1264Z" fill="#FFF5D2"/>
<path d="M143.972 52.3806C145.444 52.3806 146.222 51.5702 146.222 50.0304V41.0692C146.222 39.4889 145.444 38.719 143.972 38.719H143.235C141.825 38.719 141.07 39.4889 141.07 41.0692V50.0304C141.07 51.5702 141.825 52.3806 143.235 52.3806H143.972Z" fill="#FFF5D2"/>
<path d="M165.705 38.5102C161.457 38.5102 158.388 41.4619 158.388 45.5389C158.388 49.6159 161.435 52.5894 165.705 52.5894C169.976 52.5894 173 49.6377 173 45.5389C173 41.4401 169.951 38.5102 165.705 38.5102ZM165.705 48.0356C164.295 48.0356 163.433 47.0787 163.433 45.542C163.433 43.9399 164.273 43.0266 165.705 43.0266C167.137 43.0266 167.952 44.0023 167.952 45.542C167.952 47.0818 167.09 48.0356 165.705 48.0356Z" fill="#FFF5D2"/>
<path d="M172.26 29.4212C167.984 21.4325 152.557 7.93302 148.129 8.56888C145.507 8.94291 142.524 9.41357 139.27 9.95592L140.321 6.80469C140.343 6.73612 140.362 6.67066 140.378 6.60209C140.506 6.0838 140.513 5.54322 140.398 5.02182C140.283 4.50043 140.049 4.01208 139.714 3.59424C139.377 3.17474 138.949 2.83544 138.462 2.60133C137.975 2.36722 137.441 2.24425 136.9 2.24149C136.137 2.24461 135.394 2.49044 134.782 2.9428L128.734 7.38444L124.476 1.48096C124.144 1.02281 123.708 0.649467 123.202 0.391909C122.696 0.134352 122.135 0 121.566 0C120.997 0 120.437 0.134352 119.931 0.391909C119.425 0.649467 118.988 1.02281 118.657 1.48096L114.402 7.38444L108.363 2.9428C107.749 2.48754 107.002 2.24149 106.235 2.24149C105.694 2.2441 105.161 2.36668 104.674 2.60023C104.187 2.83378 103.759 3.17237 103.422 3.59113C103.087 4.00966 102.853 4.49855 102.738 5.02041C102.622 5.54227 102.629 6.08328 102.758 6.60209C102.758 6.67066 102.792 6.73924 102.814 6.80469L105.908 16.0807C82.9974 20.5878 53.9029 26.6191 43.2501 28.8695C42.6144 29.0018 42.0438 29.3465 41.6341 29.8459C41.2244 30.3453 41.0006 30.969 41 31.6124V34.0343C41 34.3208 41.057 34.6045 41.1677 34.8692C41.2784 35.134 41.4407 35.3745 41.6452 35.5771C41.8498 35.7797 42.0926 35.9404 42.3599 36.0501C42.6272 36.1597 42.9136 36.2161 43.2029 36.2161H170.797C171.086 36.2161 171.373 36.1597 171.64 36.0501C171.907 35.9404 172.15 35.7797 172.355 35.5771C172.559 35.3745 172.722 35.134 172.832 34.8692C172.943 34.6045 173 34.3208 173 34.0343V31.282C172.978 30.7646 172.506 29.8794 172.26 29.4212ZM105.228 6.04416C105.193 5.89523 105.193 5.74039 105.226 5.59118C105.26 5.44197 105.327 5.30223 105.423 5.18239C105.519 5.06254 105.641 4.96568 105.78 4.89901C105.919 4.83235 106.071 4.79761 106.226 4.79738C106.445 4.79803 106.657 4.87036 106.83 5.0031L114.021 10.3019C114.218 10.4482 114.458 10.527 114.704 10.5263C114.888 10.5284 115.07 10.4864 115.235 10.4039C115.399 10.3214 115.541 10.2009 115.648 10.0525L120.737 2.95527C120.831 2.82403 120.956 2.71703 121.1 2.6432C121.245 2.56936 121.405 2.53084 121.568 2.53084C121.73 2.53084 121.891 2.56936 122.035 2.6432C122.18 2.71703 122.304 2.82403 122.399 2.95527L127.487 10.0151C127.595 10.1633 127.737 10.2837 127.901 10.3661C128.065 10.4486 128.247 10.4907 128.431 10.4889C128.677 10.4896 128.915 10.4108 129.111 10.2645L136.305 4.9657C136.478 4.83253 136.691 4.76015 136.91 4.75998C137.064 4.7608 137.216 4.79592 137.354 4.86276C137.493 4.92961 137.615 5.02645 137.711 5.14615C137.806 5.26585 137.874 5.40533 137.908 5.55429C137.942 5.70325 137.942 5.85788 137.907 6.00676L132.737 21.5073C132.677 21.6766 132.585 21.8326 132.464 21.9663C132.344 22.1001 132.198 22.2089 132.035 22.2865C128.77 23.8477 125.19 24.6554 121.565 24.6492C117.939 24.6504 114.36 23.8373 111.097 22.2709C110.934 22.1933 110.788 22.0846 110.667 21.9509C110.546 21.8172 110.453 21.6611 110.393 21.4917L108.419 15.5695L105.228 6.04416ZM170.281 34.0966H43.7191C43.571 34.0966 43.429 34.0386 43.3241 33.9352C43.2191 33.8318 43.1597 33.6915 43.1589 33.5449V32.2109C43.1589 32.0637 43.2179 31.9226 43.323 31.8186C43.428 31.7145 43.5705 31.6561 43.7191 31.6561H170.278C170.351 31.6556 170.424 31.6696 170.492 31.6971C170.56 31.7247 170.622 31.7653 170.674 31.8165C170.726 31.8678 170.767 31.9288 170.795 31.9959C170.823 32.063 170.838 32.135 170.838 32.2078V33.5418C170.839 33.6146 170.825 33.6869 170.797 33.7544C170.77 33.8219 170.729 33.8832 170.677 33.9349C170.625 33.9865 170.563 34.0274 170.495 34.0552C170.427 34.0829 170.354 34.097 170.281 34.0966Z" fill="#FFF5D2"/>
</g>
</svg>
