<svg width="217" height="92" viewBox="0 0 217 92" fill="none" xmlns="http://www.w3.org/2000/svg">
<mask id="mask0_164_478" style="mask-type:alpha" maskUnits="userSpaceOnUse" x="0" y="0" width="217" height="92">
<rect width="217" height="92" fill="#D9D9D9"/>
</mask>
<g mask="url(#mask0_164_478)">
<path d="M0.125311 54.4968C0.163637 54.0205 0.309007 53.559 0.55058 53.1467C0.792154 52.7343 1.1237 52.3819 1.5205 52.1155C1.91729 51.8492 2.3691 51.6759 2.84224 51.6084C3.31538 51.541 3.79764 51.5812 4.25306 51.7261C7.51805 52.7587 10.7702 53.8137 14.0095 54.8912C14.2999 54.9905 14.5503 55.1808 14.7237 55.4339C14.8971 55.687 14.9841 55.9893 14.9717 56.2958C14.9717 57.2578 14.9717 58.2199 15.0391 59.0472C15.116 60.2498 15.3277 62.1834 15.472 63.511C15.492 63.7 15.4745 63.891 15.4205 64.0731C15.3664 64.2553 15.2769 64.425 15.1571 64.5725C15.0373 64.7199 14.8896 64.8423 14.7224 64.9326C14.5552 65.0228 14.3718 65.0792 14.1827 65.0984C10.334 65.4928 4.83999 66.2144 2.25173 66.5607C2.06105 66.5876 1.86689 66.5758 1.68086 66.526C1.49484 66.4763 1.32075 66.3895 1.16899 66.271C1.01722 66.1525 0.890893 66.0046 0.797541 65.8362C0.704189 65.6678 0.645731 65.4823 0.625648 65.2908C0.404347 63.2224 0.125311 60.6827 0.125311 60.6827C-0.0573953 58.6247 -0.0573953 56.5547 0.125311 54.4968" fill="#D35004"/>
<path d="M16.01 50.4951C16.8795 48.007 18.237 45.7175 20.0031 43.7609C20.212 43.5267 20.3383 43.2306 20.3626 42.9178C20.3869 42.605 20.308 42.2928 20.1378 42.0292C18.3674 39.265 16.5809 36.5071 14.7784 33.7557C14.5226 33.3618 14.1822 33.0297 13.7821 32.7836C13.3819 32.5375 12.932 32.3836 12.465 32.3329C11.9979 32.2823 11.5255 32.3362 11.0819 32.4907C10.6382 32.6453 10.2346 32.8967 9.9002 33.2266C6.81433 36.3153 4.34845 39.9662 2.63576 43.9821C2.45367 44.3859 2.35946 44.8238 2.35938 45.2667C2.35929 45.7096 2.45334 46.1475 2.63529 46.5514C2.81723 46.9552 3.08292 47.3158 3.41475 47.6093C3.74659 47.9027 4.137 48.1224 4.56011 48.2536C7.76737 49.2605 10.9746 50.2963 14.1819 51.3609C14.5393 51.4782 14.9284 51.4513 15.2663 51.286C15.6041 51.1207 15.8641 50.83 15.9908 50.4759" fill="#F67C00"/>
<path d="M206.214 78.2209C203.544 78.2412 200.882 77.9178 198.295 77.2589C197.891 77.1627 197.525 76.9703 197.525 76.624V71.8138C197.525 71.4578 197.708 71.1115 198.295 71.1692C199.844 71.3039 203.779 71.7176 206.214 71.7176C207.272 71.7176 207.57 71.3039 207.57 70.7555C207.57 70.4284 207.388 70.1783 206.541 69.7935L201.018 67.0036C197.525 65.2431 196.602 62.8669 196.602 60.2694C196.602 56.7772 198.776 53.7564 206.464 53.7564C209.47 53.7511 212.468 54.0541 215.412 54.6607C215.816 54.7569 216.143 54.9493 216.143 55.2956V60.1058C216.143 60.4906 216.038 60.8081 215.412 60.7408C213.488 60.558 209.225 60.2694 206.464 60.2694C205.838 60.2694 205.694 60.5195 205.694 60.7793C205.694 61.039 205.838 61.2603 207.06 61.799L212.285 64.2041C215.595 65.7433 216.99 67.831 216.99 70.592C216.99 74.3439 213.94 78.2883 206.214 78.2883" fill="#5A1B00"/>
<path d="M186.97 47.1375H180.677C180.436 47.1327 180.201 47.0655 179.993 46.9424C179.786 46.8193 179.614 46.6445 179.494 46.4352L173.423 37.6133C173.317 37.4594 173.24 37.3632 173.057 37.3632C172.874 37.3632 172.874 37.4209 172.874 37.6518V46.5025C172.85 46.6861 172.757 46.8538 172.614 46.9717C172.472 47.0895 172.289 47.1488 172.104 47.1375H165.369C165.183 47.149 165 47.0901 164.855 46.9724C164.711 46.8547 164.616 46.6869 164.59 46.5025V24.4431C164.615 24.124 164.763 23.8273 165.004 23.6169C165.246 23.4064 165.56 23.2989 165.879 23.3175H171.912C172.203 23.3366 172.484 23.4285 172.729 23.5849C172.975 23.7413 173.177 23.957 173.317 24.2122L179.494 33.0629C179.677 33.3515 179.792 33.3515 179.869 33.3515C179.946 33.3515 180.052 33.3515 180.052 33.0629V23.9621C180.064 23.78 180.148 23.6101 180.285 23.4894C180.422 23.3687 180.601 23.3069 180.783 23.3175H187.519C187.702 23.3068 187.882 23.3683 188.02 23.4888C188.159 23.6093 188.245 23.7791 188.259 23.9621V46.0215C188.23 46.3379 188.079 46.6307 187.839 46.8387C187.599 47.0467 187.288 47.1537 186.97 47.1375" fill="#5A1B00"/>
<path d="M192.57 77.8743C191.059 78.0283 188.374 78.2207 185.17 78.2207C180.533 78.2207 175.27 77.2586 175.27 70.7168V61.26C175.27 54.6893 180.533 53.7562 185.17 53.7562C187.641 53.7489 190.111 53.8677 192.57 54.1121C192.751 54.1064 192.927 54.1699 193.063 54.2897C193.199 54.4094 193.284 54.5764 193.301 54.7567V59.5668C193.286 59.7472 193.201 59.9147 193.065 60.0333C192.928 60.152 192.75 60.2124 192.57 60.2018H185.17C184.208 60.2018 183.958 60.4327 183.958 61.2312V63.0013H192.57C192.752 62.9908 192.931 63.0525 193.068 63.1732C193.205 63.2939 193.288 63.4638 193.301 63.6459V68.1674C193.286 68.3478 193.201 68.5152 193.065 68.6339C192.928 68.7525 192.75 68.813 192.57 68.8024H183.958V70.7264C183.958 71.5345 184.247 71.7558 185.17 71.7558H192.57C192.752 71.7453 192.931 71.8071 193.068 71.9278C193.205 72.0484 193.288 72.2183 193.301 72.4004V77.2105C193.282 77.3899 193.196 77.5556 193.06 77.6749C192.925 77.7943 192.75 77.8585 192.57 77.8551" fill="#5A1B00"/>
<path d="M102.298 47.4645C96.1879 47.4645 90.5977 44.7997 90.5977 36.6224V33.8325C90.5977 25.6552 96.1879 23 102.298 23C108.408 23 114.007 25.6552 114.007 33.8325V36.6224C114.007 44.7997 108.408 47.4645 102.298 47.4645ZM105.184 33.8325C105.184 30.7828 104.347 29.6669 102.298 29.6669C100.248 29.6669 99.4112 30.7828 99.4112 33.8325V36.6224C99.4112 39.672 100.258 40.788 102.298 40.788C104.338 40.788 105.184 39.672 105.184 36.6224V33.8325Z" fill="#5A1B00"/>
<path d="M140.505 23.962L136.127 43.3277C135.396 46.5986 132.558 47.4644 128.064 47.4644C123.571 47.4644 120.742 46.5986 120.011 43.3277L115.633 23.962C115.556 23.606 115.7 23.3174 116.181 23.3174H123.879C124.062 23.3188 124.239 23.3838 124.379 23.5014C124.52 23.619 124.615 23.7819 124.648 23.962L127.776 40.9226C127.776 41.1727 127.852 41.3363 128.103 41.3363C128.353 41.3363 128.401 41.1727 128.439 40.9226L131.566 23.962C131.6 23.7819 131.695 23.619 131.836 23.5014C131.976 23.3838 132.153 23.3188 132.336 23.3174H140.034C140.515 23.3174 140.659 23.606 140.582 23.962" fill="#5A1B00"/>
<path d="M159.644 47.1086C157.185 47.353 154.715 47.4718 152.245 47.4645C147.607 47.4645 142.344 46.5025 142.344 39.9606V30.5039C142.344 23.9235 147.607 23 152.245 23C155.449 23 158.133 23.1924 159.644 23.3463C159.824 23.3429 159.999 23.4072 160.135 23.5265C160.27 23.6458 160.356 23.8115 160.375 23.9909V28.8011C160.363 28.9832 160.279 29.153 160.142 29.2737C160.005 29.3944 159.826 29.4562 159.644 29.4456H152.245C151.282 29.4456 151.032 29.6669 151.032 30.475V32.2163H159.692C159.874 32.2057 160.053 32.2675 160.19 32.3882C160.327 32.5089 160.411 32.6788 160.423 32.8608V37.3824C160.411 37.5645 160.327 37.7343 160.19 37.855C160.053 37.9757 159.874 38.0375 159.692 38.027H151.032V39.951C151.032 40.7495 151.331 40.9708 152.245 40.9708H159.644C159.826 40.9602 160.005 41.022 160.142 41.1427C160.279 41.2634 160.363 41.4332 160.375 41.6153V46.4255C160.358 46.6058 160.273 46.7728 160.137 46.8925C160.001 47.0123 159.825 47.0758 159.644 47.0701" fill="#5A1B00"/>
<path d="M112.422 77.3263C109.524 77.8917 106.58 78.1912 103.628 78.2209C98.9515 78.2209 91.918 76.5855 91.918 67.3499V64.6274C91.918 55.2379 99.0958 53.7564 103.993 53.7564C106.832 53.7152 109.665 54.0386 112.422 54.7185C113.153 54.9109 113.192 55.007 113.192 55.4207V60.1347C113.192 60.6157 113.086 60.7696 112.566 60.7119C111.46 60.5772 108.333 60.3848 106.052 60.3848C102.04 60.3848 100.712 61.0582 100.712 64.5889V67.3788C100.712 71.5829 102.521 71.7079 103.599 71.7079C104.005 71.709 104.41 71.6769 104.811 71.6118V65.8396C104.824 65.6575 104.907 65.4876 105.044 65.3669C105.181 65.2462 105.36 65.1844 105.542 65.195H112.432C112.614 65.1844 112.793 65.2462 112.93 65.3669C113.067 65.4876 113.151 65.6575 113.163 65.8396V76.5855C113.163 77.1242 113.057 77.1627 112.393 77.2878" fill="#5A1B00"/>
<path d="M132.617 77.9034C132.434 77.902 132.257 77.8369 132.117 77.7193C131.976 77.6017 131.881 77.4389 131.848 77.2588L131.184 73.6704H125.594L124.93 77.2588C124.896 77.4389 124.801 77.6017 124.661 77.7193C124.52 77.8369 124.343 77.902 124.16 77.9034H116.462C115.981 77.9034 115.837 77.6148 115.914 77.2588L120.292 57.8931C121.033 54.6222 123.862 53.7563 128.355 53.7563C132.848 53.7563 135.677 54.6222 136.408 57.8931L140.786 77.2588C140.863 77.6148 140.719 77.9034 140.238 77.9034H132.617ZM128.721 60.2982C128.721 60.048 128.644 59.8845 128.393 59.8845C128.143 59.8845 128.095 60.048 128.057 60.2982L126.7 67.8117H130.087L128.721 60.2982Z" fill="#5A1B00"/>
<path d="M170.615 77.9032H163.37C163.215 77.8863 163.074 77.8089 162.977 77.6882C162.879 77.5674 162.834 77.413 162.85 77.2587V67.2247C162.85 66.9649 162.85 66.936 162.629 66.936C162.407 66.936 162.407 67.0323 162.263 67.2247L159.54 70.7553C159.175 71.2363 158.953 71.3614 158.578 71.3614H156.442C156.038 71.3614 155.817 71.2363 155.48 70.7553L152.757 67.2247C152.603 67.0323 152.536 66.936 152.382 66.936C152.228 66.936 152.16 66.9361 152.16 67.2247V77.2587C152.17 77.3346 152.164 77.4115 152.143 77.4852C152.123 77.5588 152.088 77.6276 152.04 77.6876C151.993 77.7475 151.934 77.7975 151.867 77.8345C151.8 77.8715 151.726 77.8949 151.65 77.9032H144.396C144.145 77.9032 143.809 77.9032 143.809 77.5473V55.1992C143.836 54.8819 143.986 54.5876 144.226 54.3792C144.467 54.1707 144.78 54.0646 145.098 54.0833H149.909C150.328 54.0398 150.752 54.1161 151.13 54.3034C151.508 54.4907 151.825 54.7813 152.045 55.1415L157.087 62.2221C157.231 62.4433 157.375 62.578 157.529 62.578C157.683 62.578 157.818 62.4433 157.972 62.2221L163.014 55.1415C163.232 54.7805 163.549 54.4892 163.928 54.3018C164.306 54.1144 164.73 54.0386 165.15 54.0833H169.961C170.277 54.0672 170.587 54.1745 170.826 54.3827C171.065 54.5909 171.213 54.8837 171.24 55.1992V77.5473C171.24 77.9032 170.913 77.9032 170.653 77.9032" fill="#5A1B00"/>
<path d="M53.8257 50.4951C52.9562 48.007 51.5987 45.7175 49.8326 43.7609C49.6237 43.5267 49.4974 43.2306 49.4731 42.9178C49.4487 42.605 49.5277 42.2928 49.6979 42.0292C51.4683 39.265 53.2548 36.5071 55.0572 33.7557C55.3131 33.3618 55.6535 33.0297 56.0536 32.7836C56.4537 32.5375 56.9036 32.3836 57.3707 32.3329C57.8377 32.2823 58.3102 32.3362 58.7538 32.4907C59.1974 32.6453 59.6011 32.8967 59.9355 33.2266C63.0245 36.3127 65.4908 39.9643 67.1999 43.9821C67.382 44.3859 67.4762 44.8238 67.4763 45.2667C67.4764 45.7096 67.3823 46.1475 67.2004 46.5514C67.0185 46.9552 66.7528 47.3158 66.4209 47.6093C66.0891 47.9027 65.6987 48.1224 65.2756 48.2536C62.0683 49.2605 58.861 50.2963 55.6538 51.3609C55.2964 51.4782 54.9073 51.4513 54.5695 51.286C54.2316 51.1207 53.9716 50.83 53.8449 50.4759" fill="#F67C00"/>
<path d="M52.4183 31.4371C52.6615 31.0658 52.824 30.6475 52.8951 30.2094C52.9661 29.7712 52.9443 29.3231 52.8308 28.8939C52.7174 28.4648 52.515 28.0643 52.2367 27.7185C51.9584 27.3727 51.6105 27.0893 51.2156 26.8866C46.1641 24.3311 40.5823 22.9995 34.9211 22.9995C29.2598 22.9995 23.678 24.3311 18.6266 26.8866C18.2316 27.0893 17.8837 27.3727 17.6054 27.7185C17.3272 28.0643 17.1247 28.4648 17.0113 28.8939C16.8979 29.3231 16.876 29.7712 16.9471 30.2094C17.0182 30.6475 17.1806 31.0658 17.4239 31.4371C19.1879 34.1372 20.9326 36.8469 22.6581 39.5663C22.8563 39.878 23.1686 40.0997 23.5282 40.1842C23.8878 40.2687 24.2662 40.2092 24.5825 40.0184C27.7115 38.1672 31.2805 37.1905 34.9163 37.1905C38.552 37.1905 42.121 38.1672 45.25 40.0184C45.567 40.2068 45.9446 40.2649 46.3035 40.1806C46.6624 40.0962 46.9746 39.876 47.1744 39.5663C48.762 37.0746 50.9173 33.7941 52.4183 31.4371Z" fill="#D35004"/>
<path d="M69.7885 54.4968C69.7502 54.0205 69.6048 53.559 69.3632 53.1467C69.1217 52.7343 68.7901 52.3819 68.3933 52.1155C67.9966 51.8492 67.5447 51.6759 67.0716 51.6084C66.5984 51.541 66.1162 51.5812 65.6608 51.7261C62.3894 52.7587 59.1372 53.8137 55.9043 54.8912C55.6157 54.9931 55.367 55.184 55.194 55.4365C55.021 55.689 54.9328 55.9899 54.9421 56.2958C54.9421 57.2578 54.9421 58.2199 54.8844 59.0472C54.7978 60.2498 54.5957 62.1738 54.4514 63.5014C54.4288 63.6921 54.4447 63.8853 54.4982 64.0697C54.5517 64.2541 54.6416 64.4259 54.7628 64.5748C54.8839 64.7238 55.0338 64.8469 55.2034 64.9368C55.3731 65.0267 55.5591 65.0817 55.7503 65.0984C59.7273 65.4704 63.6947 65.9482 67.6525 66.5318C67.8446 66.5616 68.0408 66.5519 68.2291 66.5034C68.4174 66.455 68.5938 66.3687 68.7477 66.2499C68.9016 66.1312 69.0298 65.9823 69.1243 65.8125C69.2189 65.6426 69.2779 65.4553 69.2978 65.262L69.7981 60.6827C69.976 58.6245 69.976 56.5549 69.7981 54.4968" fill="#D35004"/>
<path d="M34.9469 67.5518C24.0853 67.5516 13.2383 68.3458 2.49259 69.928C2.12302 69.983 1.78917 70.1791 1.56128 70.4751C1.33338 70.7712 1.22919 71.1441 1.27062 71.5153C1.43419 73.0642 1.71323 75.6521 1.93453 77.7108C1.95582 77.9027 2.0154 78.0884 2.10976 78.2569C2.20411 78.4253 2.33132 78.5731 2.48384 78.6915C2.63637 78.81 2.81111 78.8966 2.99772 78.9462C3.18432 78.9959 3.37901 79.0076 3.57023 78.9807C24.3821 76.0048 45.5116 76.0048 66.3235 78.9807C66.5147 79.0076 66.7094 78.9959 66.896 78.9462C67.0826 78.8966 67.2573 78.81 67.4098 78.6915C67.5624 78.5731 67.6896 78.4253 67.7839 78.2569C67.8783 78.0884 67.9379 77.9027 67.9592 77.7108C68.1805 75.6521 68.4595 73.0642 68.6231 71.5153C68.6645 71.1441 68.5603 70.7712 68.3324 70.4751C68.1045 70.1791 67.7707 69.983 67.4011 69.928C56.6555 68.3458 45.8084 67.5516 34.9469 67.5518Z" fill="#F67C00"/>
</g>
</svg>
