<svg width="879" height="114" viewBox="0 0 879 114" fill="none" xmlns="http://www.w3.org/2000/svg">
<g clip-path="url(#clip0_177_10)">
<path d="M31.1624 87.106H38.1827C56.8104 87.106 72.6849 77.9317 72.6849 56.8669C72.6849 37.5458 58.55 26.6441 38.5109 26.6441H31.1624V87.106ZM5.34058e-05 2.83019H44.2141C77.6619 2.83019 105.16 26.5005 105.16 56.8669C105.16 87.2989 77.4608 110.867 44.2141 110.867H5.34058e-05V2.83019Z" fill="white"/>
<path d="M144.436 26.6449V44.7268H179.599V68.4792H144.436V87.1068H181.503V110.867H113.257V2.83098H181.503V26.6449H144.436Z" fill="white"/>
<path d="M244.657 68.4799L273.784 2.83171H307.671L256.441 110.868H232.254L181.861 2.83171H215.706L244.657 68.4799Z" fill="white"/>
<path d="M374.936 30.6453C369.224 26.3536 361.925 23.5184 354.253 23.5184C348.549 23.5184 340.897 26.5013 340.897 32.5245C340.897 38.8554 349.333 41.2639 354.749 42.8436L362.705 44.9812C379.42 49.4248 392.3 57.0277 392.3 74.4983C392.3 85.2523 389.432 96.2853 379.876 103.621C370.509 110.74 357.929 113.776 345.821 113.776C330.722 113.776 315.91 109.185 303.679 101.471L317.014 78.7983C324.854 84.9815 334.053 89.9502 344.734 89.9502C352.057 89.9502 359.849 86.6801 359.849 79.0896C359.849 71.2528 347.561 68.4792 340.897 66.76C321.346 61.7585 308.418 57.1508 308.418 36.2747C308.418 14.3276 325.831 -6.85697e-05 349.817 -6.85697e-05C361.925 -6.85697e-05 376.696 3.46287 387.36 8.91578L374.936 30.6453Z" fill="white"/>
<path d="M431.912 110.869H400.697V2.83251H431.912V110.869Z" fill="white"/>
<path d="M511.758 30.6453C506.034 26.3536 498.689 23.5184 491.103 23.5184C485.33 23.5184 477.723 26.5013 477.723 32.5245C477.723 38.8554 486.155 41.2639 491.554 42.8436L499.51 44.9812C516.222 49.4248 529.101 57.0277 529.101 74.4983C529.101 85.2523 526.217 96.2853 516.669 103.621C507.285 110.74 494.747 113.776 482.643 113.776C467.556 113.776 452.728 109.185 440.488 101.471L453.86 78.7983C461.627 84.9815 470.887 89.9502 481.539 89.9502C488.85 89.9502 496.626 86.6801 496.626 79.0896C496.626 71.2528 484.366 68.4792 477.723 66.76C458.152 61.7585 445.264 57.1508 445.264 36.2747C445.264 14.3276 462.608 -6.85697e-05 486.614 -6.85697e-05C498.689 -6.85697e-05 513.497 3.46287 524.173 8.91578L511.758 30.6453Z" fill="white"/>
<path d="M585.244 110.867H554.073V26.6444H528.306V2.83056H611.019V26.6444H585.244V110.867Z" fill="white"/>
<path d="M647.15 26.6449V44.7268H682.296V68.4792H647.15V87.1068H684.233V110.867H615.987V2.83098H684.233V26.6449H647.15Z" fill="white"/>
<path d="M728.296 51.3087H731.287C741.492 51.3087 752.943 49.5773 752.943 37.7934C752.943 26.1039 741.492 24.3561 731.287 24.3561H728.296V51.3087ZM796.849 110.868H758.035L728.575 69.3374H728.296V110.868H697.101V2.83166H743.707C767.431 2.83166 785.427 13.081 785.427 36.103C785.427 51.0256 776.137 63.8845 759.155 66.6171L796.849 110.868Z" fill="white"/>
<path d="M861.56 30.6453C855.861 26.3536 848.549 23.5184 840.905 23.5184C835.14 23.5184 827.562 26.5013 827.562 32.5245C827.562 38.8554 835.969 41.2639 841.361 42.8436L849.325 44.9812C866.032 49.4248 878.915 57.0277 878.915 74.4983C878.915 85.2523 876.093 96.2853 866.487 103.621C857.104 110.74 844.549 113.776 832.474 113.776C817.354 113.776 802.575 109.185 790.295 101.471L803.654 78.7983C811.491 84.9815 820.694 89.9502 831.345 89.9502C838.657 89.9502 846.465 86.6801 846.465 79.0896C846.465 71.2528 834.23 68.4792 827.562 66.76C807.946 61.7585 795.083 57.1508 795.083 36.2747C795.083 14.3276 812.41 -6.85697e-05 836.449 -6.85697e-05C848.549 -6.85697e-05 863.299 3.46287 874.004 8.91578L861.56 30.6453Z" fill="white"/>
</g>
<defs>
<clipPath id="clip0_177_10">
<rect width="878.916" height="113.777" fill="white"/>
</clipPath>
</defs>
</svg>
